# xmcd
#
# Track frame offsets: 
#        150
#        12701
#        24196
#        36453
#        45238
#        54569
#        67284
#        80645
#        92843
#        104117
#        115398
#        126672
#        137354
#        148236
#        160181
#        170081
#        184321
#        196043
#        207426
#        219505
#        231255
#        240502
#        250524
#        262871
#        273016
#
# Disc length: 3806 seconds
#
# Revision: 1
# Processed by: cddbd v1.5.2PL0 Copyright (c) Steve Scherf et al.
# Submitted via: ExactAudioCopyFreeDBPlugin 1.0
#
DISCID=740edc19
DTITLE=Various Artist - Soul Sixties [Real Gone Music]
DYEAR=2016
DGENRE=Soul
TTITLE0=Herman Griffin - Uptight
TTITLE1=Lloyd Price - Under Your Spell Again
TTITLE2=Marvin Gaye - Stubborn Kind of Fellow
TTITLE3=Nathaniel Mayer - Well I've Got Good News (For You)
TTITLE4=The Charters - Trouble Lover
TTITLE5=James Brown - Shout and Shimmy
TTITLE6=Eugene Church - That's All I Want
TTITLE7=Roscoe Gordon - As You Walk Away
TTITLE8=Ruby and The Romantics - Our Day Will Come
TTITLE9=Claudine Clark - Walkin' Through the Cemetery
TTITLE10=LaVern Baker - See See Rider
TTITLE11=Marva Josie - Later for You Baby
TTITLE12=The Charts - Zoop
TTITLE13=The Dubs - You're Free to Go
TTITLE14=The El Torros - Doop Doop a Walla Walla
TTITLE15=Jackie Wilson - The Greatest Hurt
TTITLE16=Stevie Wonder - Little Water Boy (as "Little Stevie Wonder")
TTITLE17=Jackie Ross - Hard Times
TTITLE18=The Impressions - Say That You Love Me
TTITLE19=The Marvelettes - Strange I Know
TTITLE20=Irma Thomas - It's Raining
TTITLE21=The Tonettes - Stolen Angel
TTITLE22=Wilbert Harrison - Let's Stick Together
TTITLE23=Gino Washington - I'm a Coward
TTITLE24=Herman Griffin - Sleep (Little One)
EXTD=
EXTT0=
EXTT1=
EXTT2=
EXTT3=
EXTT4=
EXTT5=
EXTT6=
EXTT7=
EXTT8=
EXTT9=
EXTT10=
EXTT11=
EXTT12=
EXTT13=
EXTT14=
EXTT15=
EXTT16=
EXTT17=
EXTT18=
EXTT19=
EXTT20=
EXTT21=
EXTT22=
EXTT23=
EXTT24=
PLAYORDER=
